<?xml version="1.0" encoding="utf-8"?>
<!-- Generator: Adobe Illustrator 28.1.0, SVG Export Plug-In . SVG Version: 6.00 Build 0)  -->
<svg version="1.1" id="Layer_1" xmlns="http://www.w3.org/2000/svg" xmlns:xlink="http://www.w3.org/1999/xlink" x="0px" y="0px"
	 viewBox="0 0 150 60" style="enable-background:new 0 0 150 60;" xml:space="preserve">
<style type="text/css">
	.st0{fill:#CCFF7A;}
</style>
<path class="st0" d="M101,46.6c-0.1,0-0.1-0.1-0.2-0.1h-0.4c-0.1,0-0.1,0-0.2,0.1c-0.1,0-0.1,0.1-0.1,0.2l-0.7,2.3h2.4l-0.7-2.3
	C101.1,46.7,101,46.6,101,46.6L101,46.6z"/>
<path class="st0" d="M113,46.5h-1.8v5.2h1.8c0.3,0,0.4-0.1,0.5-0.2c0.1-0.1,0.2-0.3,0.2-0.6v-3.7c0-0.3-0.1-0.4-0.2-0.5
	C113.4,46.6,113.3,46.5,113,46.5z"/>
<path class="st0" d="M89.7,46.5h-1.8v5.2h1.8c0.3,0,0.4-0.1,0.5-0.2c0.1-0.1,0.2-0.3,0.2-0.6v-3.7c0-0.3-0.1-0.4-0.2-0.5
	C90.1,46.6,89.9,46.5,89.7,46.5z"/>
<path class="st0" d="M63.6,46.3h-1.1v2h1.1c0.3,0,0.4-0.1,0.5-0.2c0.1-0.1,0.1-0.3,0.1-0.5V47c0-0.2-0.1-0.4-0.1-0.5
	C64,46.4,63.9,46.3,63.6,46.3z"/>
<path class="st0" d="M58.9,38.9v-6.8c0-15.6-12.7-28.3-28.3-28.3h-0.1C14.9,3.8,2.2,16.5,2.2,32.1V58h13.3V32.1c0-8.3,6.7-15,15-15
	h0.1c8.3,0,15,6.7,15,15v6.7l0,0h-4.4v-6.9c0-5.9-4.8-10.6-10.6-10.6h-0.1c-5.9,0-10.6,4.8-10.6,10.6V58h4.4V31.9
	c0-3.4,2.8-6.2,6.2-6.2h0.1c3.4,0,6.2,2.8,6.2,6.2v6.9h-4.4V58h113.9V38.9H58.9z M22.9,19c0.1,0,0.1-0.1,0.2-0.1
	C23,18.9,22.9,19,22.9,19z M24,18.4c0.1-0.1,0.2-0.1,0.3-0.1C24.2,18.3,24.1,18.3,24,18.4z M25.2,17.9c0.1,0,0.2-0.1,0.3-0.1
	C25.4,17.8,25.3,17.9,25.2,17.9z M26.5,17.5c0.1,0,0.2-0.1,0.3-0.1C26.7,17.4,26.6,17.4,26.5,17.5z M27.8,17.2c0.1,0,0.1,0,0.2,0
	C27.9,17.2,27.9,17.2,27.8,17.2z M30.6,16.9L30.6,16.9c-0.9,0-1.8,0.1-2.6,0.2c-0.1,0-0.1,0-0.2,0c-0.3,0.1-0.7,0.1-1.1,0.2
	c-0.1,0-0.2,0.1-0.3,0.1c-0.3,0.1-0.7,0.2-1,0.3c-0.1,0-0.2,0.1-0.3,0.1c-0.3,0.1-0.6,0.3-0.9,0.4c-0.1,0.1-0.2,0.1-0.3,0.1
	c-0.3,0.1-0.6,0.3-0.9,0.5c-0.1,0-0.1,0.1-0.2,0.1c-1.3,0.8-2.5,1.8-3.5,2.9c-0.1,0.1-0.2,0.2-0.2,0.3c-0.2,0.2-0.4,0.5-0.5,0.7
	c-0.1,0.1-0.2,0.3-0.3,0.4c-0.2,0.2-0.3,0.5-0.5,0.7c-0.1,0.1-0.2,0.3-0.3,0.5c-0.1,0.2-0.3,0.5-0.4,0.7c-0.1,0.2-0.2,0.3-0.3,0.5
	c-0.1,0.2-0.2,0.5-0.3,0.7c-0.1,0.1-0.1,0.3-0.2,0.4c0.1-0.1,0.1-0.3,0.2-0.4c-0.1,0.2-0.1,0.4-0.2,0.6c0-0.1,0-0.1,0.1-0.2
	c0,0.1,0,0.1-0.1,0.2c-0.1,0.2-0.2,0.4-0.2,0.7c-0.1,0.3-0.1,0.6-0.2,0.9c-0.3,1.1-0.4,2.3-0.4,3.5v-0.1c0-8.3,6.7-15,15-15h0.1
	c8.3,0,15,6.7,15,15v0.1C45.6,23.6,38.8,16.9,30.6,16.9L30.6,16.9z M19.3,21.9c-0.1,0.1-0.2,0.2-0.2,0.3
	C19.2,22.1,19.3,22,19.3,21.9z M18.6,22.9c-0.1,0.1-0.2,0.3-0.3,0.4C18.4,23.1,18.5,23,18.6,22.9z M17.8,23.9
	c-0.1,0.1-0.2,0.3-0.3,0.5C17.6,24.2,17.7,24.1,17.8,23.9z M17.1,25.1c-0.1,0.2-0.2,0.3-0.3,0.5C17,25.4,17.1,25.3,17.1,25.1z
	 M15.9,28.4c0.1-0.3,0.1-0.6,0.2-0.9C16.1,27.9,16,28.2,15.9,28.4z M30.6,12.4L30.6,12.4c-10.8,0-19.5,8.7-19.5,19.5v26.1H6.6
	c0,0.1,0,0.1,0,0l0,0c0-0.1,0-0.1,0,0l0,0v-26C6.6,18.7,17.3,8,30.5,8h0.1c13.2,0,23.9,10.7,23.9,23.9v6.9h-4.4v-7
	C50.1,21.1,41.3,12.4,30.6,12.4z M47,51.5c0,1.1-0.3,1.8-0.9,2.4c-0.6,0.5-1.5,0.8-2.8,0.8h-5.2c-0.2,0-0.3-0.1-0.4-0.1
	c-0.1-0.1-0.1-0.2-0.1-0.4v-9.9c0-0.2,0.1-0.3,0.1-0.4c0.1-0.1,0.2-0.1,0.4-0.1h5.2c1.3,0,2.2,0.3,2.8,0.8s0.9,1.3,0.9,2.4V51.5
	L47,51.5z M56.7,46c0,0.2-0.1,0.3-0.1,0.4s-0.2,0.1-0.4,0.1h-1.5v5.1h1.5c0.2,0,0.3,0.1,0.4,0.1s0.1,0.2,0.1,0.4v1.8
	c0,0.2-0.1,0.3-0.1,0.4s-0.2,0.1-0.4,0.1h-6.5c-0.2,0-0.3-0.1-0.4-0.1s-0.1-0.2-0.1-0.4v-1.8c0-0.2,0.1-0.3,0.1-0.4s0.2-0.1,0.4-0.1
	h1.5v-5.1h-1.5c-0.2,0-0.3-0.1-0.4-0.1s-0.1-0.2-0.1-0.4v-1.9c0-0.2,0.1-0.3,0.1-0.4s0.2-0.1,0.4-0.1h6.5c0.2,0,0.3,0.1,0.4,0.1
	s0.1,0.2,0.1,0.4V46z M68.6,54c0,0.2-0.1,0.3-0.1,0.4c-0.1,0.1-0.2,0.1-0.4,0.1h-2.4c-0.2,0-0.3-0.1-0.4-0.1
	c-0.1-0.1-0.1-0.2-0.1-0.4v-2.4c0-0.2-0.1-0.4-0.1-0.5c-0.1-0.1-0.2-0.2-0.5-0.2h-2.2v3c0,0.2-0.1,0.3-0.1,0.4s-0.2,0.1-0.4,0.1
	h-2.4c-0.2,0-0.3-0.1-0.4-0.1s-0.1-0.2-0.1-0.4v-9.9c0-0.2,0.1-0.3,0.1-0.4s0.2-0.1,0.4-0.1h5.1c1.1,0,1.9,0.2,2.4,0.7
	c0.4,0.5,0.7,1.1,0.7,1.8v0.7c0,0.4-0.1,0.8-0.2,1.1c-0.1,0.3-0.3,0.5-0.7,0.7c0.5,0.1,1,0.3,1.3,0.7c0.3,0.4,0.5,0.9,0.5,1.5
	L68.6,54L68.6,54z M78.8,46c0,0.2-0.1,0.3-0.1,0.4s-0.2,0.1-0.4,0.1H76v7.5c0,0.2-0.1,0.3-0.1,0.4c-0.1,0.1-0.2,0.1-0.4,0.1H73
	c-0.2,0-0.3-0.1-0.4-0.1c-0.1-0.1-0.1-0.2-0.1-0.4v-7.5h-2.2c-0.2,0-0.3-0.1-0.4-0.1c-0.1-0.1-0.1-0.2-0.1-0.4v-1.9
	c0-0.2,0.1-0.3,0.1-0.4c0.1-0.1,0.2-0.1,0.4-0.1h8.1c0.2,0,0.3,0.1,0.4,0.1s0.1,0.2,0.1,0.4V46z M93.8,51.5c0,1.1-0.3,1.8-0.9,2.4
	c-0.6,0.5-1.5,0.8-2.8,0.8h-5.2c-0.2,0-0.3-0.1-0.4-0.1c-0.1-0.1-0.1-0.2-0.1-0.4v-9.9c0-0.2,0.1-0.3,0.1-0.4
	c0.1-0.1,0.2-0.1,0.4-0.1h5.2c1.3,0,2.2,0.3,2.8,0.8s0.9,1.3,0.9,2.4V51.5L93.8,51.5z M105.4,54c0,0.2-0.1,0.3-0.1,0.4
	s-0.2,0.1-0.4,0.1h-2.3c-0.2,0-0.3-0.1-0.5-0.1c-0.1-0.1-0.1-0.2-0.1-0.4v-2.2h-2.7V54c0,0.2-0.1,0.3-0.1,0.4s-0.2,0.1-0.4,0.1h-2.2
	c-0.2,0-0.3-0.1-0.4-0.1s-0.1-0.2-0.1-0.4v-4c0-0.3,0.1-0.7,0.1-1.1c0.1-0.4,0.3-0.9,0.5-1.4l1.3-3.5c0.1-0.2,0.1-0.3,0.3-0.4
	c0.1-0.1,0.3-0.1,0.5-0.1h4.1c0.2,0,0.3,0,0.5,0.1c0.1,0.1,0.2,0.2,0.3,0.4l1.3,3.5c0.2,0.5,0.3,1,0.5,1.4c0.1,0.4,0.1,0.7,0.1,1.1
	L105.4,54L105.4,54z M117.2,51.5c0,1.1-0.3,1.8-0.9,2.4c-0.6,0.5-1.5,0.8-2.8,0.8h-5.2c-0.2,0-0.3-0.1-0.4-0.1s-0.1-0.2-0.1-0.4
	v-9.9c0-0.2,0.1-0.3,0.1-0.4s0.2-0.1,0.4-0.1h5.2c1.3,0,2.2,0.3,2.8,0.8s0.9,1.3,0.9,2.4V51.5L117.2,51.5z M129,51.5
	c0,1.1-0.3,1.8-0.9,2.4c-0.6,0.5-1.5,0.8-2.8,0.8H120c-0.2,0-0.3-0.1-0.4-0.1s-0.1-0.2-0.1-0.4v-9.9c0-0.2,0.1-0.3,0.1-0.4
	s0.2-0.1,0.4-0.1h5.2c1.3,0,2.2,0.3,2.8,0.8c0.6,0.5,0.9,1.3,0.9,2.4V51.5L129,51.5z M140.4,47.1c0,0.5,0,0.8-0.1,1.1
	s-0.2,0.5-0.5,0.8l-2.3,3.2v2c0,0.2-0.1,0.3-0.1,0.4s-0.2,0.1-0.4,0.1h-2.5c-0.2,0-0.3-0.1-0.4-0.1s-0.1-0.2-0.1-0.4v-2l-2.4-3.1
	c-0.2-0.3-0.4-0.6-0.5-0.8c-0.1-0.2-0.1-0.6-0.1-1.1v-2.9c0-0.2,0.1-0.3,0.1-0.4s0.2-0.1,0.4-0.1h2.4c0.2,0,0.3,0.1,0.4,0.1
	s0.1,0.2,0.1,0.4v2.5c0,0.1,0,0.2,0,0.3c0,0.1,0.1,0.2,0.1,0.3l0.7,1.1c0.1,0.1,0.1,0.2,0.2,0.2c0.1,0,0.1,0.1,0.2,0.1h0.1
	c0.1,0,0.1,0,0.2-0.1c0.1,0,0.1-0.1,0.2-0.2l0.7-1.1c0.1-0.1,0.1-0.2,0.1-0.3c0-0.1,0-0.2,0-0.3v-2.5c0-0.2,0.1-0.3,0.1-0.4
	c0.1-0.1,0.2-0.1,0.4-0.1h2.3c0.2,0,0.3,0.1,0.4,0.1s0.1,0.2,0.1,0.4L140.4,47.1L140.4,47.1z"/>
<path class="st0" d="M42.8,46.5H41v5.2h1.8c0.3,0,0.4-0.1,0.5-0.2c0.1-0.1,0.2-0.3,0.2-0.6v-3.7c0-0.3-0.1-0.4-0.2-0.5
	C43.3,46.6,43.1,46.5,42.8,46.5z"/>
<path class="st0" d="M124.8,46.5H123v5.2h1.8c0.3,0,0.4-0.1,0.5-0.2c0.1-0.1,0.2-0.3,0.2-0.6v-3.7c0-0.3-0.1-0.4-0.2-0.5
	C125.2,46.6,125.1,46.5,124.8,46.5z"/>
</svg>
