<?xml version="1.0" encoding="UTF-8"?>
<svg id="Layer_1" data-name="Layer 1" xmlns="http://www.w3.org/2000/svg" version="1.1" viewBox="0 0 150 60">
  <defs>
    <style>
      .cls-1 {
        fill: #fec215;
        stroke-width: 0px;
      }
    </style>
  </defs>
  <path class="cls-1" d="M345.5,152.9c-.2-.1-.3-.2-.6-.2h-1.3c-.2,0-.4,0-.6.2-.2.1-.3.4-.5.7l-2.5,8.1h8.4l-2.5-8.1c-.1-.3-.3-.6-.5-.7Z"/>
  <path class="cls-1" d="M387.4,152.6h-6.3v18.1h6.3c.9,0,1.5-.2,1.9-.6.4-.4.6-1.1.6-2v-13c0-.9-.2-1.5-.6-1.9s-1-.6-1.9-.6Z"/>
  <path class="cls-1" d="M306,152.6h-6.3v18.1h6.3c.9,0,1.5-.2,1.9-.6.4-.4.6-1.1.6-2v-13c0-.9-.2-1.5-.6-1.9-.4-.4-1-.6-1.9-.6Z"/>
  <path class="cls-1" d="M215.1,152h-4v6.8h4c.9,0,1.5-.2,1.9-.7.3-.5.5-1.1.5-1.8v-1.8c0-.7-.2-1.3-.5-1.8-.3-.5-.9-.7-1.9-.7Z"/>
  <path class="cls-1" d="M198.8,126v-23.6c0-54.4-44.2-98.6-98.6-98.6h-.3C45.5,3.9,1.2,48.1,1.2,102.5v90.2h46.3v-90.2c0-28.9,23.4-52.3,52.3-52.3h.3c28.9,0,52.3,23.4,52.3,52.3v23.5h0s-15.4,0-15.4,0v-24.2c0-20.4-16.6-36.9-36.9-36.9h-.3c-20.4,0-36.9,16.6-36.9,36.9v90.8h15.4v-90.8c0-11.9,9.6-21.5,21.5-21.5h.3c11.8,0,21.5,9.6,21.5,21.5v24.2h-15.5v66.7h396.9v-66.7H198.8ZM73.3,56.8c.2-.1.4-.3.6-.4-.2.1-.4.3-.6.4ZM77.1,54.7c.3-.2.6-.3,1-.5-.3.2-.7.3-1,.5ZM81.3,52.9c.4-.1.7-.3,1.1-.4-.4.1-.7.3-1.1.4ZM85.8,51.4c.3,0,.7-.2,1-.3-.3,0-.7.2-1,.3ZM90.5,50.4c.2,0,.4,0,.6,0-.2,0-.4,0-.6,0ZM100.2,49.5h-.3c-3,0-5.9.3-8.8.8-.2,0-.4,0-.6,0-1.2.2-2.5.5-3.7.8-.3,0-.7.2-1,.3-1.1.3-2.3.7-3.4,1.1-.4.1-.7.3-1.1.4-1.1.4-2.2.9-3.2,1.3-.3.2-.7.3-1,.5-1.1.5-2.1,1.1-3.2,1.6-.2.1-.4.3-.7.4-4.6,2.7-8.8,6.1-12.3,10.1-.3.3-.6.6-.8.9-.7.8-1.3,1.6-1.9,2.4-.3.4-.7.9-1,1.3-.6.8-1.1,1.6-1.6,2.4-.3.5-.7,1.1-1,1.6-.5.8-.9,1.6-1.3,2.4-.3.6-.6,1.2-.9,1.9-.4.8-.7,1.6-1.1,2.4-.2.5-.4,1-.6,1.5.2-.5.4-1,.6-1.5-.3.7-.5,1.4-.8,2.2,0-.2.1-.4.2-.6,0,.2-.1.4-.2.6-.3.8-.6,1.5-.8,2.3-.3,1-.5,2-.8,3-.9,3.9-1.5,7.9-1.5,12.1v-.3c0-28.9,23.4-52.3,52.3-52.3h.3c28.9,0,52.3,23.4,52.3,52.3v.3c0-28.9-23.4-52.3-52.3-52.3ZM60.9,66.9c-.3.3-.6.6-.8.9.3-.3.6-.6.8-.9ZM58.2,70.2c-.3.4-.7.9-1,1.3.3-.5.7-.9,1-1.3ZM55.6,73.9c-.3.5-.7,1.1-1,1.6.3-.5.6-1.1,1-1.6ZM53.3,77.9c-.3.6-.6,1.2-.9,1.9.3-.6.6-1.2.9-1.9ZM49,89.7c.2-1,.5-2,.8-3-.3,1-.5,2-.8,3ZM100.2,33.7h-.3c-37.4,0-67.8,30.4-67.8,67.8v91h-15.4c0,.3,0,.2,0,0h0c0-.3,0-.2,0,0h0v-90.7c0-45.9,37.3-83.2,83.2-83.2h.3c45.9,0,83.2,37.3,83.2,83.2v24.2h-15.4v-24.5c0-37.4-30.4-67.8-67.8-67.8ZM157.4,170c0,3.7-1.1,6.4-3.2,8.2-2.2,1.8-5.4,2.7-9.9,2.7h-18c-.7,0-1.2-.2-1.5-.5-.3-.3-.5-.8-.5-1.5v-34.6c0-.7.2-1.2.5-1.5.3-.3.8-.5,1.5-.5h18c4.4,0,7.7.9,9.9,2.7,2.2,1.8,3.2,4.5,3.2,8.2v16.6ZM191.2,150.8c0,.7-.2,1.2-.5,1.5-.3.3-.8.5-1.5.5h-5.2v17.9h5.2c.7,0,1.2.2,1.5.5.3.3.5.8.5,1.5v6.3c0,.7-.2,1.2-.5,1.5-.3.3-.8.5-1.5.5h-22.7c-.7,0-1.2-.2-1.5-.5-.3-.3-.5-.8-.5-1.5v-6.3c0-.7.2-1.2.5-1.5.3-.3.8-.5,1.5-.5h5.3v-17.9h-5.3c-.7,0-1.2-.2-1.5-.5-.3-.3-.5-.8-.5-1.5v-6.5c0-.7.2-1.2.5-1.5.3-.3.8-.5,1.5-.5h22.7c.7,0,1.2.2,1.5.5.3.3.5.8.5,1.5v6.5ZM232.7,178.9c0,.7-.2,1.2-.5,1.5-.3.3-.8.5-1.5.5h-8.3c-.7,0-1.2-.2-1.5-.5-.3-.3-.5-.8-.5-1.5v-8.2c0-.8-.2-1.4-.5-1.7-.3-.4-.8-.6-1.6-.6h-7.5v10.5c0,.7-.2,1.2-.5,1.5-.3.3-.8.5-1.5.5h-8.2c-.7,0-1.2-.2-1.5-.5-.3-.3-.5-.8-.5-1.5v-34.6c0-.7.2-1.2.5-1.5.3-.3.8-.5,1.5-.5h17.8c4,0,6.7.8,8.2,2.5,1.5,1.7,2.3,3.8,2.3,6.4v2.5c0,1.5-.2,2.8-.7,3.8-.4,1-1.2,1.8-2.3,2.3,1.9.2,3.5,1,4.7,2.3,1.2,1.4,1.8,3.1,1.8,5.4v11.3ZM268.2,150.8c0,.7-.2,1.2-.5,1.5-.3.3-.8.5-1.5.5h-7.8v26.2c0,.7-.2,1.2-.5,1.5-.3.3-.8.5-1.5.5h-8.6c-.7,0-1.2-.2-1.5-.5-.3-.3-.5-.8-.5-1.5v-26.2h-7.8c-.7,0-1.2-.2-1.5-.5-.3-.3-.5-.8-.5-1.5v-6.5c0-.7.2-1.2.5-1.5.3-.3.8-.5,1.5-.5h28.2c.7,0,1.2.2,1.5.5.3.3.5.8.5,1.5v6.5ZM320.5,170c0,3.7-1.1,6.4-3.2,8.2-2.2,1.8-5.4,2.7-9.9,2.7h-18c-.7,0-1.2-.2-1.5-.5-.3-.3-.5-.8-.5-1.5v-34.6c0-.7.2-1.2.5-1.5.3-.3.8-.5,1.5-.5h18c4.4,0,7.7.9,9.9,2.7,2.2,1.8,3.2,4.5,3.2,8.2v16.6ZM361,178.9c0,.7-.2,1.2-.5,1.5-.3.3-.8.5-1.5.5h-8.1c-.7,0-1.2-.2-1.6-.5-.3-.3-.5-.8-.5-1.5v-7.5h-9.4v7.5c0,.7-.2,1.2-.5,1.5-.3.3-.8.5-1.5.5h-7.8c-.7,0-1.2-.2-1.5-.5-.3-.3-.5-.8-.5-1.5v-14.1c0-1.1.2-2.3.5-3.7s.9-3,1.6-4.9l4.6-12.1c.2-.6.5-1,1-1.3.4-.3,1-.4,1.7-.4h14.3c.7,0,1.2.1,1.7.4.4.3.8.7,1,1.3l4.6,12.1c.7,1.8,1.2,3.5,1.6,4.9.3,1.4.5,2.6.5,3.7v14.1ZM401.9,170c0,3.7-1.1,6.4-3.2,8.2-2.2,1.8-5.4,2.7-9.9,2.7h-18c-.7,0-1.2-.2-1.5-.5-.3-.3-.5-.8-.5-1.5v-34.6c0-.7.2-1.2.5-1.5.3-.3.8-.5,1.5-.5h18c4.4,0,7.7.9,9.9,2.7,2.2,1.8,3.2,4.5,3.2,8.2v16.6ZM443,170c0,3.7-1.1,6.4-3.2,8.2-2.2,1.8-5.4,2.7-9.9,2.7h-18c-.7,0-1.2-.2-1.5-.5-.3-.3-.5-.8-.5-1.5v-34.6c0-.7.2-1.2.5-1.5.3-.3.8-.5,1.5-.5h18c4.4,0,7.7.9,9.9,2.7,2.2,1.8,3.2,4.5,3.2,8.2v16.6ZM482.7,154.6c0,1.6-.1,2.9-.4,3.7-.3.8-.8,1.8-1.6,2.9l-8.1,11v6.8c0,.7-.2,1.2-.5,1.5-.3.3-.8.5-1.5.5h-8.6c-.7,0-1.2-.2-1.5-.5-.3-.3-.5-.8-.5-1.5v-6.8l-8.2-10.9c-.8-1.1-1.4-2.1-1.6-2.9-.3-.8-.4-2-.4-3.7v-10.2c0-.7.2-1.2.5-1.5.3-.3.8-.5,1.5-.5h8.2c.7,0,1.2.2,1.5.5.3.3.5.8.5,1.5v8.7c0,.4,0,.7,0,1.1,0,.4.2.8.4,1.1l2.5,3.8c.2.3.4.6.6.7.2.1.4.2.7.2h.5c.3,0,.5,0,.7-.2.2-.1.4-.4.6-.7l2.5-3.8c.2-.4.4-.7.4-1.1,0-.4,0-.8,0-1.1v-8.7c0-.7.2-1.2.5-1.5.3-.3.8-.5,1.5-.5h7.9c.7,0,1.2.2,1.5.5.3.3.5.8.5,1.5v10.2Z"/>
  <path class="cls-1" d="M142.8,152.6h-6.3v18.1h6.3c.9,0,1.5-.2,1.9-.6.4-.4.6-1.1.6-2v-13c0-.9-.2-1.5-.6-1.9-.4-.4-1-.6-1.9-.6Z"/>
  <path class="cls-1" d="M428.5,152.6h-6.3v18.1h6.3c.9,0,1.5-.2,1.9-.6.4-.4.6-1.1.6-2v-13c0-.9-.2-1.5-.6-1.9-.4-.4-1-.6-1.9-.6Z"/>
</svg>